<mxfile host="app.diagrams.net" modified="2023-08-11T00:45:31.705Z" agent="Mozilla/5.0 (Windows NT 10.0; Win64; x64) AppleWebKit/537.36 (KHTML, like Gecko) Chrome/115.0.0.0 Safari/537.36" etag="nRYkAGpxLnMGEHJ6IsUA" version="21.6.3" type="device">
  <diagram name="페이지-1" id="3iS_WV6FI-tAgFf0rZJo">
    <mxGraphModel dx="1799" dy="993" grid="1" gridSize="10" guides="1" tooltips="1" connect="1" arrows="1" fold="1" page="1" pageScale="1" pageWidth="4681" pageHeight="3300" math="0" shadow="0">
      <root>
        <mxCell id="0" />
        <mxCell id="1" parent="0" />
        <mxCell id="Vn2gh25Ks_o68maz97qz-9" style="edgeStyle=orthogonalEdgeStyle;rounded=0;orthogonalLoop=1;jettySize=auto;html=1;entryX=0;entryY=0.5;entryDx=0;entryDy=0;" edge="1" parent="1" source="Vn2gh25Ks_o68maz97qz-1" target="Vn2gh25Ks_o68maz97qz-2">
          <mxGeometry relative="1" as="geometry" />
        </mxCell>
        <mxCell id="Vn2gh25Ks_o68maz97qz-1" value="사용자" style="shape=umlActor;verticalLabelPosition=bottom;verticalAlign=top;html=1;outlineConnect=0;" vertex="1" parent="1">
          <mxGeometry x="390" y="360" width="30" height="60" as="geometry" />
        </mxCell>
        <mxCell id="Vn2gh25Ks_o68maz97qz-7" style="edgeStyle=orthogonalEdgeStyle;rounded=0;orthogonalLoop=1;jettySize=auto;html=1;entryX=0;entryY=0.5;entryDx=0;entryDy=0;" edge="1" parent="1" source="Vn2gh25Ks_o68maz97qz-2" target="Vn2gh25Ks_o68maz97qz-3">
          <mxGeometry relative="1" as="geometry" />
        </mxCell>
        <mxCell id="Vn2gh25Ks_o68maz97qz-8" style="edgeStyle=orthogonalEdgeStyle;rounded=0;orthogonalLoop=1;jettySize=auto;html=1;entryX=0;entryY=0.5;entryDx=0;entryDy=0;" edge="1" parent="1" source="Vn2gh25Ks_o68maz97qz-2" target="Vn2gh25Ks_o68maz97qz-4">
          <mxGeometry relative="1" as="geometry" />
        </mxCell>
        <mxCell id="Vn2gh25Ks_o68maz97qz-2" value="메인화면" style="rounded=1;whiteSpace=wrap;html=1;" vertex="1" parent="1">
          <mxGeometry x="490" y="360" width="120" height="60" as="geometry" />
        </mxCell>
        <mxCell id="Vn2gh25Ks_o68maz97qz-6" style="edgeStyle=orthogonalEdgeStyle;rounded=0;orthogonalLoop=1;jettySize=auto;html=1;entryX=0.5;entryY=0;entryDx=0;entryDy=0;" edge="1" parent="1" source="Vn2gh25Ks_o68maz97qz-3" target="Vn2gh25Ks_o68maz97qz-4">
          <mxGeometry relative="1" as="geometry" />
        </mxCell>
        <mxCell id="Vn2gh25Ks_o68maz97qz-3" value="일반식" style="rounded=1;whiteSpace=wrap;html=1;" vertex="1" parent="1">
          <mxGeometry x="680" y="290" width="120" height="60" as="geometry" />
        </mxCell>
        <mxCell id="Vn2gh25Ks_o68maz97qz-5" style="edgeStyle=orthogonalEdgeStyle;rounded=0;orthogonalLoop=1;jettySize=auto;html=1;entryX=0.5;entryY=1;entryDx=0;entryDy=0;" edge="1" parent="1" source="Vn2gh25Ks_o68maz97qz-4" target="Vn2gh25Ks_o68maz97qz-3">
          <mxGeometry relative="1" as="geometry" />
        </mxCell>
        <mxCell id="Vn2gh25Ks_o68maz97qz-4" value="운동식" style="rounded=1;whiteSpace=wrap;html=1;" vertex="1" parent="1">
          <mxGeometry x="680" y="440" width="120" height="60" as="geometry" />
        </mxCell>
        <mxCell id="Vn2gh25Ks_o68maz97qz-10" value="메인화면" style="rounded=1;whiteSpace=wrap;html=1;" vertex="1" parent="1">
          <mxGeometry x="1170" y="290" width="120" height="60" as="geometry" />
        </mxCell>
      </root>
    </mxGraphModel>
  </diagram>
</mxfile>
